<mxfile host="Electron" modified="2024-02-19T10:52:51.962Z" agent="Mozilla/5.0 (X11; Linux x86_64) AppleWebKit/537.36 (KHTML, like Gecko) draw.io/23.1.5 Chrome/120.0.6099.109 Electron/28.1.0 Safari/537.36" etag="rlLioUBu5FmjtyiYi71T" version="23.1.5" type="device">
  <diagram name="Page-1" id="CsZ2FxxG6tZcgXgf0lRF">
    <mxGraphModel dx="979" dy="529" grid="0" gridSize="10" guides="1" tooltips="1" connect="1" arrows="1" fold="1" page="1" pageScale="1" pageWidth="850" pageHeight="1100" math="0" shadow="0">
      <root>
        <mxCell id="0" />
        <mxCell id="1" parent="0" />
        <mxCell id="QGvM4vl__vyeh6SA8aqo-2" value="Wait for an event state reached" style="rounded=1;whiteSpace=wrap;html=1;" parent="1" vertex="1">
          <mxGeometry x="283" y="137" width="150" height="60" as="geometry" />
        </mxCell>
        <mxCell id="QGvM4vl__vyeh6SA8aqo-8" value="" style="shape=cylinder3;whiteSpace=wrap;html=1;boundedLbl=1;backgroundOutline=1;size=15;" parent="1" vertex="1">
          <mxGeometry x="561" y="242" width="60" height="47" as="geometry" />
        </mxCell>
        <mxCell id="QGvM4vl__vyeh6SA8aqo-9" value="" style="endArrow=classic;html=1;rounded=0;entryX=0.5;entryY=0;entryDx=0;entryDy=0;entryPerimeter=0;dashed=1;exitX=1;exitY=0.5;exitDx=0;exitDy=0;" parent="1" source="QGvM4vl__vyeh6SA8aqo-2" target="QGvM4vl__vyeh6SA8aqo-8" edge="1">
          <mxGeometry width="50" height="50" relative="1" as="geometry">
            <mxPoint x="548" y="117" as="sourcePoint" />
            <mxPoint x="547.5" y="161" as="targetPoint" />
            <Array as="points">
              <mxPoint x="591" y="167" />
            </Array>
          </mxGeometry>
        </mxCell>
        <mxCell id="QGvM4vl__vyeh6SA8aqo-13" value="" style="endArrow=classic;html=1;rounded=0;dashed=1;" parent="1" edge="1">
          <mxGeometry width="50" height="50" relative="1" as="geometry">
            <mxPoint x="163" y="253" as="sourcePoint" />
            <mxPoint x="274" y="253" as="targetPoint" />
          </mxGeometry>
        </mxCell>
        <mxCell id="QGvM4vl__vyeh6SA8aqo-14" value="" style="endArrow=classic;html=1;rounded=0;entryX=0.5;entryY=0;entryDx=0;entryDy=0;dashed=1;" parent="1" target="QGvM4vl__vyeh6SA8aqo-2" edge="1">
          <mxGeometry width="50" height="50" relative="1" as="geometry">
            <mxPoint x="357.5" y="97" as="sourcePoint" />
            <mxPoint x="357.5" y="151" as="targetPoint" />
          </mxGeometry>
        </mxCell>
        <mxCell id="QGvM4vl__vyeh6SA8aqo-15" value="&lt;b&gt;&lt;font style=&quot;font-size: 14px;&quot;&gt;2)&lt;/font&gt;&lt;/b&gt; store workflow snapshot&amp;nbsp; in database" style="text;html=1;strokeColor=none;fillColor=none;align=left;verticalAlign=middle;whiteSpace=wrap;rounded=0;" parent="1" vertex="1">
          <mxGeometry x="446" y="137" width="230" height="24" as="geometry" />
        </mxCell>
        <mxCell id="QGvM4vl__vyeh6SA8aqo-18" value="Process the expected event" style="rounded=1;whiteSpace=wrap;html=1;" parent="1" vertex="1">
          <mxGeometry x="283" y="240" width="150" height="60" as="geometry" />
        </mxCell>
        <mxCell id="QGvM4vl__vyeh6SA8aqo-21" value="Workflow instance" style="rounded=0;whiteSpace=wrap;html=1;" parent="1" vertex="1">
          <mxGeometry x="298" y="37" width="120" height="60" as="geometry" />
        </mxCell>
        <mxCell id="QGvM4vl__vyeh6SA8aqo-22" value="&lt;font style=&quot;font-size: 14px;&quot;&gt;&lt;b&gt;3)&lt;/b&gt;&lt;/font&gt; expected event arrives" style="text;html=1;strokeColor=none;fillColor=none;align=left;verticalAlign=middle;whiteSpace=wrap;rounded=0;" parent="1" vertex="1">
          <mxGeometry x="131" y="220" width="175" height="30" as="geometry" />
        </mxCell>
        <mxCell id="QGvM4vl__vyeh6SA8aqo-24" value="" style="endArrow=classic;html=1;rounded=0;dashed=1;" parent="1" edge="1">
          <mxGeometry width="50" height="50" relative="1" as="geometry">
            <mxPoint x="550" y="284" as="sourcePoint" />
            <mxPoint x="439" y="284" as="targetPoint" />
          </mxGeometry>
        </mxCell>
        <mxCell id="QGvM4vl__vyeh6SA8aqo-25" value="&lt;b&gt;&lt;font style=&quot;font-size: 14px;&quot;&gt;4)&lt;/font&gt;&lt;/b&gt;&amp;nbsp;retreive from databae&amp;nbsp;" style="text;html=1;strokeColor=none;fillColor=none;align=left;verticalAlign=middle;whiteSpace=wrap;rounded=0;" parent="1" vertex="1">
          <mxGeometry x="448" y="287" width="140" height="24" as="geometry" />
        </mxCell>
        <mxCell id="QGvM4vl__vyeh6SA8aqo-26" value="Workflow instance" style="rounded=0;whiteSpace=wrap;html=1;" parent="1" vertex="1">
          <mxGeometry x="298" y="347" width="120" height="60" as="geometry" />
        </mxCell>
        <mxCell id="QGvM4vl__vyeh6SA8aqo-29" value="" style="endArrow=classic;html=1;rounded=0;entryX=0.5;entryY=0;entryDx=0;entryDy=0;dashed=1;exitX=0.5;exitY=1;exitDx=0;exitDy=0;" parent="1" source="QGvM4vl__vyeh6SA8aqo-18" edge="1">
          <mxGeometry width="50" height="50" relative="1" as="geometry">
            <mxPoint x="358.5" y="308" as="sourcePoint" />
            <mxPoint x="359" y="348" as="targetPoint" />
          </mxGeometry>
        </mxCell>
        <mxCell id="QGvM4vl__vyeh6SA8aqo-31" value="&lt;b&gt;&lt;font style=&quot;font-size: 14px;&quot;&gt;5)&lt;/font&gt;&lt;/b&gt;&amp;nbsp;resume workflow instance execution" style="text;html=1;strokeColor=none;fillColor=none;align=left;verticalAlign=middle;whiteSpace=wrap;rounded=0;" parent="1" vertex="1">
          <mxGeometry x="365" y="316" width="230" height="24" as="geometry" />
        </mxCell>
        <mxCell id="Z03DzwZWvSobYdzSOWjp-1" value="&lt;b&gt;&lt;font style=&quot;font-size: 14px;&quot;&gt;1)&lt;/font&gt;&lt;/b&gt;&amp;nbsp;executing workflow instance&amp;nbsp;" style="text;html=1;strokeColor=none;fillColor=none;align=left;verticalAlign=middle;whiteSpace=wrap;rounded=0;" vertex="1" parent="1">
          <mxGeometry x="366" y="100" width="184" height="24" as="geometry" />
        </mxCell>
      </root>
    </mxGraphModel>
  </diagram>
</mxfile>
